<!-- icon666.com - MILLIONS OF FREE VECTOR ICONS --><svg viewBox="0 0 32 32" xmlns="http://www.w3.org/2000/svg"><g id="Ikon"><path d="m27.21112 15.10553-21.38586-10.69293a1 1 0 0 0 -1.3277 1.36853l4.99188 9.27063a1.99926 1.99926 0 0 1 .23908.94824h18.0354a.98853.98853 0 0 0 -.5528-.89447z" fill="#bddbff"></path></g><g id="Line"><path d="m27.6582 14.21094-21.3862-10.69287a1.99988 1.99988 0 0 0 -2.65478 2.7373l4.9917 9.27051a.99849.99849 0 0 1 0 .94824l-4.9917 9.27051a2 2 0 0 0 2.65527 2.7373l21.38571-10.69287a2 2 0 0 0 0-3.57812zm-22.28027-8.90381 19.38574 9.69287h-14.22992a2.96571 2.96571 0 0 0 -.16412-.42236zm0 21.38574 4.9917-9.27051a2.96571 2.96571 0 0 0 .16412-.42236h14.22992z" fill="#3d9ae2"></path></g></svg>